<svg width="105" height="63" viewBox="0 0 105 63" fill="none" xmlns="http://www.w3.org/2000/svg">
<path d="M5.664 15.84H0.096V13.2H14.352V15.84H8.784V30H5.664V15.84ZM18.4635 20.298C18.8302 19.6233 19.3728 19.11 20.0915 18.758C20.8102 18.406 21.6828 18.23 22.7095 18.23V20.276C22.5922 20.2613 22.4308 20.254 22.2255 20.254C21.0815 20.254 20.1795 20.5987 19.5195 21.288C18.8742 21.9627 18.5515 22.9307 18.5515 24.192V30H16.4395V18.34H18.4635V20.298ZM29.5371 18.23C31.1504 18.23 32.3824 18.626 33.2331 19.418C34.0984 20.21 34.5311 21.3907 34.5311 22.96V30H32.5291V28.46C32.1771 29.0027 31.6711 29.4207 31.0111 29.714C30.3657 29.9927 29.5957 30.132 28.7011 30.132C27.3957 30.132 26.3471 29.8167 25.5551 29.186C24.7777 28.5553 24.3891 27.7267 24.3891 26.7C24.3891 25.6733 24.7631 24.852 25.5111 24.236C26.2591 23.6053 27.4471 23.29 29.0751 23.29H32.4191V22.872C32.4191 21.9627 32.1551 21.266 31.6271 20.782C31.0991 20.298 30.3217 20.056 29.2951 20.056C28.6057 20.056 27.9311 20.1733 27.2711 20.408C26.6111 20.628 26.0537 20.9287 25.5991 21.31L24.7191 19.726C25.3204 19.242 26.0391 18.8753 26.8751 18.626C27.7111 18.362 28.5984 18.23 29.5371 18.23ZM29.0531 28.504C29.8597 28.504 30.5564 28.328 31.1431 27.976C31.7297 27.6093 32.1551 27.096 32.4191 26.436V24.808H29.1631C27.3737 24.808 26.4791 25.4093 26.4791 26.612C26.4791 27.1987 26.7064 27.6607 27.1611 27.998C27.6157 28.3353 28.2464 28.504 29.0531 28.504ZM48.5427 18.34L43.4387 30H41.2827L36.1787 18.34H38.3787L42.3827 27.69L46.4747 18.34H48.5427ZM60.7295 24.236C60.7295 24.3973 60.7148 24.61 60.6855 24.874H51.2255C51.3575 25.9007 51.8048 26.7293 52.5675 27.36C53.3448 27.976 54.3055 28.284 55.4495 28.284C56.8428 28.284 57.9648 27.8147 58.8155 26.876L59.9815 28.24C59.4535 28.856 58.7935 29.3253 58.0015 29.648C57.2241 29.9707 56.3515 30.132 55.3835 30.132C54.1515 30.132 53.0588 29.8827 52.1055 29.384C51.1521 28.8707 50.4115 28.1593 49.8835 27.25C49.3701 26.3407 49.1135 25.314 49.1135 24.17C49.1135 23.0407 49.3628 22.0213 49.8615 21.112C50.3748 20.2027 51.0715 19.4987 51.9515 19C52.8461 18.4867 53.8508 18.23 54.9655 18.23C56.0801 18.23 57.0701 18.4867 57.9355 19C58.8155 19.4987 59.4975 20.2027 59.9815 21.112C60.4801 22.0213 60.7295 23.0627 60.7295 24.236ZM54.9655 20.012C53.9535 20.012 53.1028 20.32 52.4135 20.936C51.7388 21.552 51.3428 22.3587 51.2255 23.356H58.7055C58.5881 22.3733 58.1848 21.574 57.4955 20.958C56.8208 20.3273 55.9775 20.012 54.9655 20.012ZM78.8086 45.34H80.9206V57H78.8086V45.34ZM79.8646 43.096C79.454 43.096 79.1093 42.964 78.8306 42.7C78.5666 42.436 78.4346 42.1133 78.4346 41.732C78.4346 41.3507 78.5666 41.028 78.8306 40.764C79.1093 40.4853 79.454 40.346 79.8646 40.346C80.2753 40.346 80.6126 40.478 80.8766 40.742C81.1553 40.9913 81.2946 41.3067 81.2946 41.688C81.2946 42.084 81.1553 42.4213 80.8766 42.7C80.6126 42.964 80.2753 43.096 79.8646 43.096ZM89.2212 42.282C87.9598 42.282 87.3292 42.964 87.3292 44.328V45.34H90.7172V47.078H87.3732V57H85.2612V47.078H83.2812V45.34H85.2612V44.306C85.2612 43.1473 85.5985 42.2307 86.2732 41.556C86.9478 40.8813 87.8938 40.544 89.1112 40.544C89.5805 40.544 90.0205 40.6027 90.4312 40.72C90.8418 40.8373 91.1938 41.006 91.4872 41.226L90.8492 42.832C90.3652 42.4653 89.8225 42.282 89.2212 42.282ZM103.075 51.236C103.075 51.3973 103.06 51.61 103.031 51.874H93.5712C93.7032 52.9007 94.1505 53.7293 94.9132 54.36C95.6905 54.976 96.6512 55.284 97.7952 55.284C99.1885 55.284 100.31 54.8147 101.161 53.876L102.327 55.24C101.799 55.856 101.139 56.3253 100.347 56.648C99.5698 56.9707 98.6972 57.132 97.7292 57.132C96.4972 57.132 95.4045 56.8827 94.4512 56.384C93.4978 55.8707 92.7572 55.1593 92.2292 54.25C91.7158 53.3407 91.4592 52.314 91.4592 51.17C91.4592 50.0407 91.7085 49.0213 92.2072 48.112C92.7205 47.2027 93.4172 46.4987 94.2972 46C95.1918 45.4867 96.1965 45.23 97.3112 45.23C98.4258 45.23 99.4158 45.4867 100.281 46C101.161 46.4987 101.843 47.2027 102.327 48.112C102.826 49.0213 103.075 50.0627 103.075 51.236ZM97.3112 47.012C96.2992 47.012 95.4485 47.32 94.7592 47.936C94.0845 48.552 93.6885 49.3587 93.5712 50.356H101.051C100.934 49.3733 100.53 48.574 99.8412 47.958C99.1665 47.3273 98.3232 47.012 97.3112 47.012Z" fill="white"/>
<path d="M75 55H66V14" stroke="white" stroke-width="3"/>
<circle cx="59" cy="24" r="23.5" stroke="#FFFBFB"/>
</svg>
